<svg xmlns="http://www.w3.org/2000/svg" viewBox="0 0 1200 800" width="1200" height="800"><path fill="#FFF" d="M0 0h1200v800H0z"/><g transform="translate(320.0 139.0) rotate(0.0 280.0 260.5) scale(0.8251068218653307 0.8254119138149556)"><svg width="678.7" height="631.2" viewBox="0 0 678.7 631.2"><path d="M604.6 11.4c-33-16.7-49.6-14.5-60 2.5-8.7-1.1-14.8-.2-16.4 2.5 4.8 2 9.5 4.4 14.3 6.9 4.6 2.5 9 5.3 13.2 8.4l.2.2.3.2c1.7 1.4 3.4 2.8 5 4.2l.2.2.2.2c3.1 2.8-14.5.3-12 3.7l.2.2c.2.2.2.2.2.3 1.4 1.9 2.8 3.9 4.1 5.9 2 3.5 3.8 7.2 5.3 11.1v.5c.8 2.1 1.4 4.3 1.9 6.5v.2c1.1 4.5 1.7 9.2 1.9 13.9v.2c.6 15.1-3 32.4-11.7 52.2v.3c-.6 1.6-1.4 3.1-2.2 4.7s-1.7 3.4-2.5 5.1c-.2.2-.3.4-.3.6-.8 1.4-1.4 2.8-2.2 4.2v.2l-.9 1.6c-.6 1.1-1.1 2-1.7 3-.3.6-.8 1.2-1.1 1.9-.5.9-1.1 1.7-1.6 2.5-.5.6-.8 1.2-1.2 1.9-.5.9-1.1 1.7-1.7 2.5l-1.2 1.7-.5.8-.2.2c-28.2 39.3-42.7 51-74.5 37.7 0 0-23.4-8.3-40.2-26.8-3.8-.6-7.7-1-11.5-1.1-14.5-.3-27.4 3-39 5.8-18.4 4.5-36 9-63.7 0l-15.6-6.1c-10.3-4.6-20.2-10-29.8-15.9-23.8-14.8-55.8-18.9-78.5-1.7-30.7 23.1-6.7 61.6 9.7 52.1 16.5-9.5 24-.9 34.9 5.5 12.2 7.5 24.9 14.2 38 20.1 0 0 11.4 4.8 15.9 6.2 13.5 4.8 27.5 8.1 41.8 9.7 5.1.5 10.1.8 14.8.8 6.7 0 13.4-.5 20.1-1.4 0 0 3.6-.3 9.4-1.4v.2c-3.4 7.2-12 20.9-21.8 32.9-3.4 4.7-7.3 9-11.7 12.8-7.3 7-14.3 11.4-19.8 10.1l-.6-.2c-45.6-12.2-93-15.3-139.8-9.2-8.6 1.1-17.3 2.5-26.2 4.2l-17 3.7c-17.7 4.3-35 9.8-51.9 16.5-2.2.6-4.4 1.3-6.5 2.2.1-.6.3-1.3.6-1.9 6.9-45-29.9-44.7-39.9-43.3 28.8-4.5 24.3 141.7-.6 134.5 21.4 8.7 26.3-9.8 56.9-25.1 17.6-7.8 35.8-14.1 54.4-18.9l16.5-3.7 1.7-.3 18.7-3c23-3.1 46.3-3.5 69.4-1.2 19.9 1.9 39.6 5.9 58.6 12.2 0 0 3.4 1.2 8.3 2.5.2.8.3 1.4.5 2.2 4.8 7.9 24.9 38.5 53.8 44.4-22.2-3.2-44.8-2.6-66.9 1.7-9.4 1.7-18.8 4.1-27.9 7-1.7.5-3.6 1.2-5.6 1.9-1.7-1.4-3.5-2.6-5.5-3.6-.6-.3-1.2-.3-1.9-.2-15 3.9-29.1 10.8-41.5 20.1-.7.6-1.2 1.4-1.2 2.3s.4 1.8 1.1 2.3c.9.6 1.7 1.4 2.8 2.2-1.6.9-3.1 2-4.5 3-8.2 5.8-16 12.1-23.4 19-6.4 6.1-7.2 6.5-12.8 12.6-10.7 11.4-20.6 23.5-29.5 36.3-2.2 3.1-4 6.5-5.6 10 0-1.2-.2-2.7-.2-4.1-5-44.3-42.1-31.5-52.1-27.3 26.5-10 59.2 130.9 33.4 130.4 22.9 3 39.9-18.1 54.1-38.8 14-20.9 30.9-39.8 50-56.1 0 0 6.4-5.6 13.1-10.3 61.6-45 120-42.5 124.2-41.6h-.2c12.2 2.3 24.8 1.9 36.8-1.2 7.6-1.9 15-4.4 22.1-7.5.4-.1.8-.3 1.2-.5 0 0 .8.6 2.2 1.7.1.1.2.1.3.2 1.9 1.6 3.9 3.1 5.9 4.5 1.5 1 3.2 6.3 4.9 5.5 3.7-1.9 13.3-7 21.5-12.1 2.5-1.6 6-4.9 8.4-6.6 7.9-5.3 17.4-13.5 24-20.4 1.9-2.1-.7-6.1-2.7-8-.2-.2-3 .7-3.1.7l-.8-.5s-1.9-2.1-.8-3.2c3.9-3.4 7.5-5.7 11.3-9.3l3.5-4.2c.9-.9 1.3-2.5 2.2-3.4 0 0 12.1-9.3 13.7-11.4l1.2-2.1c3.7-4.4 6-8.7 9.4-13.2 1.4-1.9 5.4-3.8 6.8-5.7 16.2-22.4 25.3-45.3 30.1-65.5l1.6-1.8c.9-3.1-2.2-6.4-2.1-9.7l.9 2c.5.8.8 1.7 1.2 2.5l.8 1.7c1.5 3.4 2.7 7 3.6 10.6 5.8 23.1.5 50.3-7.9 74.5l-6.1 15.6c-1.9 4.5-3.9 8.9-5.9 12.9l-2 3.9c0 .2-.2.2-.2.3-.2.3-.3.5-.3.8-3.3 6.1-7.9 6.9-17 8.4-2.8.5-6.1.9-9.8 1.7-3.3.6-7 1.4-11.1 2.5-21.8 5.9-11.8 26.2-.2 21.7 5.3-2 23.8.5 7.3 17.9-3.1 3.1-5.9 6.5-8.4 10.1-1.1 1.6-2 3.1-3 4.7-1.3 2.2-2.3 4.7-3 7.2-2.6 11.1 5 18.4 22.6 22.4 35.2 7.9 43.2-10.4 62.8-36 11.4-17.3 21.1-35.6 29.1-54.7l6.2-16.1c10.8-29.6 15.6-57.4 14.6-82.9-.3-10.3-1.7-20.5-4.2-30.5-.8-3.2-1.7-6.4-2.8-9.5-5.2-15.8-13.3-30.5-24-43.3-.3-.3-.5-.6-.8-.9-5.8-6.6-12.1-12.7-18.9-18.4.3.3.6.5.9.8l.6-.6c6.2-7.8 12-15.4 17.1-22.8 16.1-23.2 26.2-44.1 31.8-63 2.6-8.4 4.4-17.1 5.1-25.9.8-8.2.6-16.4-.6-24.5 15-46.3-19.1-81.4-40.9-92.5z" fill="#EAEEFC"/><path d="M654.6 175.4c-1.6-7.6-5.9-14.6-13.4-21.4-5.6 18.9-15.9 39.7-31.8 63 7.5 5.5 14.6 11.2 21.5 17.3 18.7-24.5 26.5-43.9 23.7-58.9z" fill="none"/><path d="M654.6 175.4c3 15-4.8 34.3-23.8 58.9 6 5.3 11.4 11.2 16.4 17.5 25.2-32.1 35.1-57.8 30.5-80.9-3.3-16.5-13.6-30.5-31.6-42.7-.8 8.8-2.5 17.5-5.1 25.9 7.7 6.6 12 13.8 13.6 21.3z" fill="#f04e23"/><path d="M647.1 251.8c-5-6.3-10.4-12.1-16.4-17.5-6.9-6.2-14-11.9-21.5-17.3-5.1 7.3-10.8 15-17.1 22.8l-.6.6c6.5 5.3 12.5 11.2 17.9 17.6.3.3.6.6.8.9 1.8-.4 4.7 2.3 6.6 2.3 14.3 0 24.7 8.5 24.8 22.8 0 0-2.3-1.2-2.3-1.1 0 6.7-.3 14.5-5 19.3 1.1 3.1 1.9 6.4 2.8 9.5 2.5 10 3.9 20.2 4.2 30.5 21.7-34.8 28.9-60.7 5.8-90.4z" fill="#00aee0"/><path d="M641.7 284.3c0-14.3-11.6-25.9-25.9-25.9-1.8 0-3.7.2-5.5.6 10.7 12.8 18.9 27.5 24 43.3 4.7-4.7 7.3-11.2 7.4-18z" fill="#04294f"/><path d="M565.6 401.8c-.8 2.2-1.6 4.4-2.3 6.4-.6 1.7-1.2 3.3-1.9 4.8s-1.2 2.8-1.7 4.2c8.1 1.1 16.2 2.9 24 5.5 11.2 3.6 24.8 9.2 36.8 18.4l1.2-3.3c1.7-4.2 3.4-8.6 5-12.8-9.4-7.8-21.2-13.2-31.9-16.7-9.6-2.9-19.3-5.1-29.2-6.5z" fill="#f04e23"/><path d="m571.1 139.1-1.3 2.5c.8-1.6 1.4-3.1 2.2-4.7z" fill="#fff"/><path d="M545.3 394.2c3.7 2.6 7.5 5.5 11.1 8.3 2.3 1.9 4.7 3.9 7 5.9.8-2.2 1.6-4.2 2.3-6.4 8.6-24.2 13.7-51.4 7.9-74.5-1.2-5.2-3.1-10.1-5.6-14.8-.1.1-.3.2-.5.2h-.5c-3.3 21.8-15.9 48-34.1 73.2l.9.5c3.9 2.5 7.6 4.9 11.5 7.6z" fill="#00aee0"/><path d="M539.6 401.8c3.7 2.5 7.9 6.7 11.8 9.2 2.9 1.9 6.9.6 10 2.2.6-1.6 1.2-3.3 1.9-4.8-2.2-2.1-4.6-4.1-7-5.9-3.6-3-7.3-5.6-11.1-8.3s-7.6-5.1-11.5-7.6l-.9-.5c-1.2 1.9-2.6 3.7-4.1 5.5.3.3.6.5.9.8 3.7 2.7 6.3 6.8 10 9.4z" fill="#04294f"/><path d="M534.1 414.9c3.7 2.6 7.5 5.5 11.1 8.3 2.9 2.3 5.8 4.7 8.4 7.3 2-4.1 4.1-8.4 5.9-12.9.6-1.4 1.2-2.8 1.7-4.2-3.1-1.6-6.1-3.3-9-5.1-3.9-2.3-7.6-5-11.5-7.6s-7.5-5.5-11.1-8.3c-.3-.3-.6-.5-.9-.8-3.4 4.5-6.9 8.9-10.6 13.2 1.4.8 3 1.7 4.4 2.5 4 2.3 7.9 5 11.6 7.6z" fill="#00aee0"/><path d="M518.7 412.9c3.6 3 7.3 5.6 11.1 8.3s7.6 5.1 11.5 7.6c3.4 2 6.7 4.1 10.3 5.9 0-.2.2-.2.2-.3l2-3.9c-2.6-2.5-5.6-5-8.4-7.3-3.6-3-7.3-5.6-11.1-8.3s-7.6-5.1-11.5-7.6c-1.4-.9-2.9-1.8-4.4-2.5l-1.7 2c-.8.9-1.6 1.7-2.3 2.6 1.3 1.2 2.7 2.4 4.3 3.5z" fill="#04294f"/><path d="M529.8 421.2c-3.7-2.6-7.5-5.5-11.1-8.3-1.4-1.2-3-2.3-4.4-3.6-3 3.4-6.1 6.9-9.4 10.1-.9.9-1.7 1.9-2.6 2.8 2.8 1.6 5.5 3.1 8.1 4.7 3.9 2.3 7.6 5 11.5 7.6s7.5 5.5 11.1 8.3l1.1.9c9-1.4 13.6-2.2 17-8.4.2-.2.3-.5.3-.8-3.5-1.8-7-3.8-10.3-5.9-3.9-2.3-7.7-4.7-11.3-7.4z" fill="#00aee0"/><path d="M522 434.6c-3.7-2.6-7.6-5.1-11.5-7.6-2.6-1.6-5.3-3.3-8.1-4.7l-3.7 3.7c2.5 2.3 5.1 4.5 7.8 6.7 3.6 3 7.3 5.6 11.1 8.3 2.2 1.6 4.5 3.1 6.7 4.7 3.7-.8 7-1.2 9.8-1.7l-1.1-.9c-3.6-3.2-7.2-6-11-8.5z" fill="#04294f"/><path d="M506.5 432.5c-2.6-2.2-5.3-4.4-7.8-6.7-3.6 3.6-7.3 7-11.2 10.4l2.5 2c.5.4.6 1 .3 1.6l.8.5c2.3 1.6 2.8 4.8 1.2 7l-.1.1c-.2.2-.2.3-.3.5-6.5 6.9-13.9 13-21.8 18.2l.7 3.3c5 3.1 8.4 7.2 13.2 10.7s10.1 6.2 14.6 10c4.1 3.3 9.5 3.8 13.4 7.6 2.5-3.6 5.4-7 8.4-10.1 16.5-17.5-2-19.9-7.3-17.9-11.5 4.5-21.7-15.7.2-21.7 3.6-1 7.3-1.9 11.1-2.5-2.3-1.6-4.5-3-6.7-4.7-3.8-2.7-7.6-5.3-11.2-8.3zm-1.5-13.1c3.1-3.3 6.2-6.7 9.4-10.1.8-.9 1.6-1.7 2.3-2.6-3-1.1-5.8-2.2-8.7-3.3-46.5-18.3-88.9-45.4-125-80s36.5-51.3 69-109.4c25.1 15.7 59.2 30.1 95.5 38 20.3 4.5 41.1 6.6 61.9 6.1-5.4-6.4-11.4-12.3-17.9-17.6-.3-.3-.6-.5-.9-.8-11.6-.6-23.1-2-34.4-4.1-33.9-6.4-66.6-18.3-96.6-35.2l.2-.5c-2.8-1.1-5.6-2.4-8.3-3.9-2.6-1.4-5.3-2.8-7.9-4.4-9.4-5.5-17.6-11.4-24-18.5-2.8-.5-5.6-.8-8.4-.9 2.3 9.5 11.7 20.6 25.9 31.5.8.6 1.7 1.2 2.5 1.9-7 12.5-14.2 24.5-21.2 35.7-25.4 40.7-47.5 70-47.5 70-17.9-19-26.8-32.6-26.8-32.6-3.6 4.6-7.5 8.8-11.7 12.8 0 .2 55.8 85.6 172.6 127.9z" fill="#f04e23"/><path d="M486.1 477c-4.8-3.4-9.7-6.5-14.6-9.7l-1.4-.9c-2.5 1.7-5 3.3-7.5 4.8 1.2 1.1 1.4 3.9 2.8 5 4.5 3.7 5.7 12.2 10.6 15.7s12.8 2.7 17.8 5.8c4.5 2.8 10.5 2.5 15.3 4.8.9-1.6 1.9-3.2 3-4.7-3.8-3.6-7.7-7.1-11.8-10.3-4.8-3.7-9.5-7.1-14.2-10.5z" fill="#04294f"/><path d="M495 494.7c-5-3.1-9.8-6.2-14.6-9.7s-9.5-6.9-14-10.6c-1.2-1.1-2.6-2.2-3.9-3.3-8.3 5-15.6 8.7-19.3 10.6-1.7.8-3.6.6-5.1-.3-2-1.4-4.1-3-6.2-4.7-.4.5-1.2.6-1.7.2l-1.9-1.4c-7.2 3.1-14.6 5.6-22.1 7.5l.3 1.2c41.8 45.8 79.2 42.5 99.6 25.4.7-2.5 1.7-4.9 3-7.2-5.1-2.2-9.6-5-14.1-7.7z" fill="#00aee0"/><path d="M443.4 191.6c2.5 1.6 5.3 3 7.9 4.4 2.7 1.5 5.4 2.8 8.3 3.9 31.8 13.2 66.7 7.3 94.9-32.1l.2-.2.5-.8 1.2-1.7c.6-.8 1.1-1.7 1.7-2.5.5-.6.8-1.2 1.2-1.9.6-.8 1.1-1.6 1.6-2.5.3-.6.8-1.2 1.1-1.9.6-1 1.2-1.9 1.7-3l.9-1.6v-.2c.8-1.4 1.6-2.8 2.2-4.2.2-.2.3-.4.3-.6.9-1.7 1.7-3.4 2.5-5.1l1.2-2.5.9-2v-.3c.3-.6.6-1.3.8-2 5.1-11.5 8.6-23.7 10.3-36.2.3-3.1.6-6.2.6-9.4v-4.8l-.5-4.7-.2-2.3-.5-2.3-.9-4.5v-.2c-.5-1.6-.9-3-1.2-4.5l-.6-2v-.5l-.8-2c-.6-1.4-1.2-3-1.9-4.4l-2.2-4.2-.3-.6c-1.2-2.1-2.6-4-4.1-5.9 0-.2-.2-.2-.2-.3l-.2-.2c-2.6-3.3-5.4-6.4-8.4-9.4l-.2-.2-.2-.2c-1.6-1.4-3.3-2.8-5-4.2l-.3-.2-.2-.2c-4.2-3.2-8.6-6-13.2-8.4-4.8-2.5-9.7-4.8-14.3-6.9-1.4-.6-3-1.2-4.4-1.7-.4.9-1.4 1.4-2.3 1.1-8.7-2.6-17.6-6.5-26.3-5.4-4.4.5-9.8 1.3-13.9 2.9-4.1 1.7-9.7 5.1-13.3 7.6-7.2 5.4-16.2 12.6-21.7 19.8-5.6 7.2-8.3 14.7-12.9 22.6-4.7 7.9-8.9 15.7-12.7 24.1-3.9 8.3-6.9 18.1-9.6 26.8-2.6 8.6-3.8 18.3-3.9 27.3 0 8.9 4.5 16.5 9 24.1.5.8.3 1.9-.5 2.4 0 0-.1 0-.1.1 1.2 1.7 2.5 3.3 3.9 4.8 6.7 7.8 14.9 13.7 24.1 19z" fill="#04294f"/><path d="M305.5 177.9c-5.4-1.7-10.6-3.8-15.7-6.1 0 0-4.1 34.4-25.9 60 5.2 2.3 10.5 4.4 15.9 6.2 20.4-21.8 25.7-60 25.7-60.1zM194.7 473.1c-4.2 3.9-8.4 8.1-12.8 12.6-6.4 6.7 34.6 18.2 50.2 50.5 4.4-3.6 8.7-7 13.1-10.3l-.3-.3c-15-33.2-49.6-52.4-50.2-52.5zm-48.6-176.6c-5.6 1.1-11.2 2.3-17 3.7 3.6 6.7 16.4 33 12.8 64.2 5.5-1.4 11.1-2.6 16.5-3.7 3.7-30.4-8.4-56.4-12.3-64.2z" fill="#f04e23"/><path d="m94.6 500.5-.5.2c-9.4 3.9-24.8 14.8-18.5 50.2 6.1 35.4 29.6 77 52.4 80 25.8.5-6.9-140.4-33.4-130.4zM31.4 273.7c-10 1.4-27.7 7.9-30.9 43.8s8.7 82 30.1 90.7c25.1 7.2 29.6-139 .8-134.5zm384.9-108c-4.6-7.7-7-16.6-7-25.6s1.4-18 4.1-26.7c2.7-8.8 6-17.3 10-25.6 3.9-8.3 8.3-16.5 12.8-24.5 4.5-7.9 9.6-15.6 15.3-22.8 5.4-7.2 11.9-13.5 19.2-18.9 3.6-2.5 7.5-4.7 11.5-6.4 4.1-1.6 8.4-2.6 12.8-3.1 8.7-1.1 17.8.6 26.5 3.3.9.3 2-.2 2.3-1.1.3-1-.2-2-1.1-2.5-4.4-1.9-9-3.3-13.7-4.2-4.8-1-9.7-1.5-14.6-1.2s-9.8 1.3-14.5 3-9.1 3.9-13.2 6.7c-8.3 5.5-15 12.5-21.2 19.8-5.9 7.4-11.3 15.3-16 23.5-2.3 4.1-4.7 8.3-6.9 12.5l-3.1 6.2c-1.1 2.2-2 4.4-3 6.4-4 8.7-7.2 17.6-9.8 26.8-2.6 9.3-3.7 19-3.3 28.7.3 4.9 1.3 9.7 2.8 14.3s3.7 9 6.5 12.9c.6.8 1.6 1 2.5.6l.2-.2c.8-.1 1.4-.8 1.3-1.5-.2 0-.3-.2-.4-.4z" fill="#00aee0"/><path d="M234.9 184.3c0-1.1-.9-1.9-2-1.9-5.9.3-12 .6-17.3-.3-2.3-.3-4.5-1.1-6.4-2.5-1.4-1.3-2.1-3.2-1.9-5.1-.2-2 .7-4 2.2-5.3 1.9-1.4 4.1-2.3 6.4-2.6 5.3-.8 11.1-.2 17 .8 1.1.1 2-.5 2.3-1.6.1-.9-.3-1.8-1.1-2.2-2.9-1.3-5.9-2.3-9-3-3.2-.8-6.5-1.1-9.8-.8-3.8.2-7.5 1.5-10.4 3.9-1.6 1.4-2.9 3.1-3.7 5-.8 1.8-1.2 3.8-1.2 5.8s.3 4 .9 5.9c.8 2 2.1 3.8 3.7 5.1 1.5 1.2 3.3 2.1 5.1 2.6 1.7.5 3.4.8 5.1.9 6.4.3 12.8-.6 18.9-2.8.8-.2 1.3-1 1.2-1.9z" fill="#04294f"/><path d="M190.5 321c8.9-1.6 26.2-3.6 43.2-.6 1.5.3 3-.7 3.3-2.3.1-.3.1-.7 0-1-1.4-8.7-4.7-24.5-10.9-32.1-.4-.5-1-.9-1.7-.9-6.6-1.3-13.4-1.8-20.1-1.7-8.7 0-17.4.9-25.9 2.6-.9.1-1.7.7-2 1.6-.5.8-.5 1.7 0 2.5 4.9 9.4 8.6 19.4 10.9 29.8.2 1.4 1.7 2.3 3.2 2.1zm28.2-29.8c.5 0 .3 1.8.8 2 1.7 1.2 2.2-3 3.3-1.3s2 3.5 2.6 5.5c.7 2 1.1 4 1.2 6.1.2 2.1-.2 4.3-.9 6.2-.3 1-1.4 1.6-2.5 1.3-.1 0-.1 0-.2-.1-.5-.2-.9-.6-1.1-1.1l-.2-.2c-.8-1.7-1.4-3.3-2-5-.6-1.6-1.1-3.1-1.7-4.8-.6-1.6-1.1-3.3-1.6-5-.6-1.7 3.4-.8 3.2-2.6l-.9-1c0-1-1 .3 0 0zm-14.1-.8c.5 0-.1.5.4.8 1.7 1.2 3.1-1.3 4.2.4s2 3.5 2.6 5.5c.7 2 1.1 4 1.2 6.1.2 2.1-.2 4.3-.9 6.2-.3 1-1.4 1.6-2.4 1.3-.1 0-.1 0-.2-.1-.5-.2-.9-.6-1.1-1.1l-.2-.2c-.8-1.7-1.4-3.3-2-5-.6-1.6-1.1-3.1-1.7-4.8-.6-1.6-1.1-3.3-1.6-5-.6-1.7 2.9-1.3 2.7-3.1-.1-1.1-2.5-.1-1.5-.3zm-15.8 1.3c-.1-1.1 0 0 1.1-.2.5 0-.5-.3 0 0 1.7 1.2 3.1-.1 4.3 1.7 1.1 1.7 2 3.5 2.6 5.5.7 2 1.1 4 1.2 6.1.2 2.1-.2 4.3-.9 6.2-.4 1-1.6 1.6-2.6 1.2-.5-.2-.9-.6-1.1-1.1l-.2-.2c-.8-1.7-1.4-3.3-2-5-.6-1.6-1.1-3.1-1.7-4.8-.6-1.6-1.1-3.3-1.6-5-.6-1.7 1.4-2.1 1.2-3.9z" fill="#EAEEFC"/><path d="M190 326.3c.4 0 .8 0 1.2-.2 8.6-1.4 25.2-3.4 41.5-.6 2.5.5 5.1-.3 6.9-2.2s2.7-4.4 2.3-7c-1.2-8.3-3.6-18.4-7.3-26.5-1.3-2.8-2.8-5.5-4.7-7.9-1.2-1.4-2.8-2.4-4.7-2.8-15.9-2.8-32.2-2.5-48 .9-4.3.9-7.1 5.1-6.2 9.4v.1c.2.7.4 1.4.8 2 .2.3.3.6.5.9 4.5 8.7 7.8 17.9 10 27.4.7 3.8 3.9 6.4 7.7 6.5zM176.3 289c-.5-.8-.5-1.7 0-2.5.4-.8 1.1-1.4 2-1.6 8.5-1.7 17.2-2.6 25.9-2.6 6.7-.1 13.5.5 20.1 1.7.6.2 1.2.5 1.7.9 6.1 7.6 9.5 23.4 10.9 32.1.3 1.5-.7 3-2.3 3.3-.3.1-.7.1-1 0-16.8-3-34.3-.8-43.2.6-1.5.3-3-.8-3.3-2.3-2.2-10.3-5.9-20.3-10.8-29.6z" fill="#04294f"/><path d="M189.5 301.3c.6 1.6 1.1 3.3 1.7 4.8.6 1.7 1.2 3.4 2 5l.2.2c.4 1 1.5 1.5 2.5 1.1.1 0 .2-.1.3-.1.5-.2.9-.6 1.1-1.1.8-2 1.1-4.1.9-6.2-.1-2.1-.5-4.1-1.2-6.1-.7-1.9-1.5-3.8-2.6-5.5-1.1-1.8-2.5-3.3-4.2-4.5-.4-.3-1-.5-1.6-.3-1.1.2-1.9 1.2-1.7 2.3v.3c.3 1.8.7 3.6 1.2 5.3.3 1.5 1 3.1 1.4 4.8zm12.2-11.8c.3 1.7.8 3.6 1.2 5.3s1.1 3.3 1.6 5c.6 1.6 1.1 3.3 1.7 4.8.6 1.7 1.2 3.4 2 5l.2.2c.3.4.7.8 1.1 1.1 1 .4 2.2 0 2.6-1 0-.1.1-.1.1-.2.8-2 1.1-4.1.9-6.2-.1-2.1-.5-4.1-1.2-6.1-.7-1.9-1.6-3.7-2.6-5.5-1.1-1.8-2.5-3.3-4.2-4.5-.4-.3-1-.5-1.6-.3-1.1.2-1.9 1.2-1.7 2.3zm13.7 0v.3c.3 1.7.8 3.6 1.2 5.3s1.1 3.3 1.6 5c.5 1.6 1 3.3 1.7 4.8.6 1.7 1.2 3.4 2 5l.2.2c.2.5.6.9 1.1 1.1 1 .4 2.2 0 2.6-1 0-.1.1-.1.1-.2.8-2 1.1-4.1.9-6.2-.1-2.1-.5-4.1-1.2-6.1-.7-1.9-1.5-3.8-2.6-5.5-1.1-1.8-2.5-3.3-4.2-4.5-1-.6-2.2-.4-3 .5-.3.3-.5.8-.4 1.3zm397.7 34.4c9.4-2.5 14.7-13.2 11.7-23.8s-12.8-17-22.3-14.3-14.7 13.2-11.7 23.8c2.8 10.6 12.8 17 22.3 14.3zm-165-27.3c-6 0-10.9 4.9-10.9 10.9s4.9 10.9 10.9 10.9 10.9-4.9 10.9-10.9-4.8-10.9-10.8-10.9zm-1.6 15.8c-3.1 0-5.6-2.5-5.6-5.6s2.5-5.6 5.6-5.6 5.6 2.5 5.6 5.6c.1 3.1-2.4 5.6-5.6 5.6z" fill="#04294f"/><circle cx="475.7" cy="311.1" fill="#f04e23" r="5.5"/><path d="M467.1 320c-3 0-5.5 2.4-5.5 5.5s2.4 5.5 5.5 5.5c3 0 5.5-2.4 5.5-5.5 0-3-2.4-5.5-5.5-5.5z" fill="#f04e23"/><circle cx="446.5" cy="306.8" fill="#00aee0" r="5.6"/><path d="M466.2 269.7c.9.9 2 1.7 3.1 2.3s2.3 1.1 3.6 1.4c1.3.4 2.7.4 4.1.2.3 0 .7-.1.9-.3 1-.6 1.4-1.9.8-2.9 0-.1-.1-.1-.1-.2v-.2c-.7-1-1.5-1.9-2.5-2.6-.9-.7-1.8-1.4-2.8-1.9-1-.6-2-1.1-3.1-1.4-1.2-.4-2.4-.7-3.6-.8h-.3c-.3 0-.6 0-.9.2-1.2.5-1.7 1.8-1.2 3 .3 1.1 1 2.3 2 3.2zm-6.9 10.6c1.8 1.9 4.2 3.2 6.7 3.7 1.3.4 2.7.4 4.1.2.3 0 .7-.1.9-.3 1-.6 1.3-1.9.7-3 0-.1-.1-.1-.1-.2v-.2c-1.3-2-3.2-3.6-5.3-4.7-1-.6-2-1.1-3.1-1.4-1.2-.4-2.4-.7-3.6-.8h-.3c-.3 0-.6 0-.9.2-1.2.5-1.7 1.8-1.2 3 .4 1.3 1.1 2.5 2.1 3.5zm4.8 15.1c1-.6 1.3-1.9.7-3 0-.1-.1-.1-.1-.2v-.2c-.7-1-1.5-1.9-2.5-2.6-.9-.7-1.8-1.4-2.8-1.9-1-.6-2-1.1-3.1-1.4-1.2-.4-2.4-.7-3.6-.8h-.3c-.3 0-.6 0-.9.2-1.1.5-1.7 1.8-1.2 3 .5 1.3 1.3 2.5 2.3 3.4.9.9 2 1.7 3.1 2.3s2.3 1.1 3.6 1.4c1.3.4 2.7.4 4.1.2.1-.1.4-.1.7-.4z" fill="#04294f"/><path d="M514.3 280.3c.3-1.1.8-2 1.1-3l.2-.5c.3-1.1.8-2.2 1.1-3.3.4-1.3-.3-2.8-1.6-3.3-1.6-.6-3.3-1.2-4.8-1.9l-.6-.3c-1.6-.6-3.1-1.2-4.5-1.9l-.8-.3c-1.4-.6-3-1.2-4.4-1.9l-.9-.5-4-1.9c-11.7-5.2-22.8-11.6-33.4-18.9-.6-.5-1.4-.6-2.2-.5-.7.1-1.4.6-1.7 1.2-.2.5-23.5 45.2-40.8 66.9-.9 1-.8 2.6.2 3.5l.1.1c1.1.9 27 22.9 58 33.2.2.1.5.2.8.2.8 0 1.6-.4 2-1.1 1.1-1.6 24.2-34.8 36.2-65.9zm-91.9 31.6c15.1-19.6 33.4-53.5 38.5-63.1 9.3 6.1 19 11.6 29 16.4-2.5 5.9-9.5 21.7-12.8 26.2-.5.6-.6 1.3-.5 2 .2.7.6 1.3 1.2 1.7.5.3 10.9 6.4 19.9 9.2-6.9 13-14.5 25.7-22.8 37.9-24.6-8.8-46.1-25.1-52.5-30.3zm77.6-21.7c-.7 1.3-2.2 2-3.6 1.6-1.9-.7-3.8-1.5-5.6-2.5-1.4-.7-2-2.5-1.3-3.9 1.4-2.5 3-6.2 4.1-8.7.6-1.4 2.3-2.1 3.7-1.6 1.6.6 3.1 1.2 4.8 2 1.4.6 2.2 2.2 1.7 3.7-1 3.3-2.3 6.4-3.8 9.4zm-68.3 184.7c-3.9-3.6-7.6-7.3-11.2-11.2l-.5-.6c26.5-11.8 47.7-33.5 49.9-35.8l3.3 2.3 7.6 5.5c2.5 1.9 5.1 3.6 7.6 5.5.5.3 1.2.3 1.7-.2.2-.2.2-.2.2-.3.3-.5.2-1.2-.3-1.6l-2.5-2-4.7-3.9-7.2-5.9-12.2-9.8c-.8-.8-1.6-1.4-2.3-2.2-1-.8-2.6-.7-3.4.3-4.7 4.9-9.7 9.5-15 13.7l-.2.2c-1.1.8-2 1.7-3.1 2.5-1.6 1.2-3.1 2.5-4.8 3.7-8.5 6.4-17.6 11.7-27.3 16.1-1.4.6-2 2.2-1.3 3.6.2.4.4.7.7.9 0 0 .5.3 1.2.9 3.1 3.4 6.4 6.7 9.8 10s6.9 6.2 10.4 9.2l1.9 1.4c.5.4 1.3.4 1.7-.2.6-.7.5-1.5 0-2.1zm142.2-37.1c-.7 0-1.4.3-1.7.9-.6.9-.3 2.2.6 2.8 2.4 1.4 4.8 2.6 7.3 3.7s4.8 2.2 7.3 3.1l7.3 3c2.3.9 4.7 1.9 7.2 3h.2c1 .5 2.1 0 2.6-.9 0-.1 0-.1.1-.2.3-.6.2-1.3-.2-1.9-1.7-2.4-3.9-4.5-6.4-6.1-2.4-1.6-4.9-2.9-7.6-3.9-2.6-1.1-5.3-1.9-8.1-2.5-2.8-.7-5.7-1.1-8.6-1zm15.4 18.6c-1-.9-2.3-1.6-3.6-2-1.3-.5-2.6-.8-3.9-.9-1.4-.1-2.8 0-4.2.3l-.9.5c-.9.8-1.1 2.2-.3 3.1l.2.2c.9 1 1.9 1.8 3 2.5 1 .6 2 1.1 3.1 1.6 1 .4 2.1.8 3.1 1.1 1.1.3 2.3.5 3.4.5h.6c.3 0 .5 0 .8-.2 1.1-.4 1.7-1.7 1.2-2.8-.4-1.7-1.2-3-2.5-3.9zm-22.6 48c-2.8-1.6-5.6-3.1-8.4-4.4-2.8-1.4-5.8-2.5-8.7-3.7-3-1.1-5.9-2.2-9-3.1h-.2c-1.9-.6-4 .5-4.7 2.3-.5 1.1-1 2.2-1.6 3.3-.6 1.2-1.3 2.3-2 3.4-1.4 2.2-3 4.5-4.7 6.7-1.6 2.2-3.3 4.4-5 6.7l-5 6.7c-.6.9-.4 2.1.4 2.8.7.5 1.6.5 2.3 0 2.2-1.9 4.4-3.7 6.4-5.6 2-2 4.1-4.1 5.9-6.1 1.9-2.1 3.8-4.4 5.5-6.7 1.1-1.6 2-3.1 3-4.7l5.6 2 8.7 3.1c3 1.1 5.8 2 8.6 3.1 2.8 1 5.6 2.2 8.3 3.6.9.5 2.1.1 2.6-.8 0 0 0-.1.1-.1.3-.8.2-1.7-.3-2.3-2.2-2.5-4.8-4.7-7.8-6.2zm1.2-191.9c.8-.4 1.2-1.3 1.1-2.2-.6-2.9-1.6-5.7-3-8.3-1.4-2.5-3-4.9-4.8-7.2-1.9-2.2-4-4.2-6.4-5.9-2.5-1.7-5.2-3-8.1-3.7-1.1-.2-2.2.4-2.5 1.6-.2.7 0 1.4.5 1.9l.2.2c1.9 2 3.7 3.7 5.5 5.6s3.4 3.7 5.1 5.8l5 5.9 5.1 6.1.2.2c.4.4.9.6 1.4.6h.5c-.1-.4.1-.4.2-.6z" fill="#04294f"/><path d="m603 309.1.2 7.6c0 .4.3.8.7.8h.1c.2 0 .3 0 .5-.2l5.6-4.5c.2-.1.5-.2.8-.2l6.7 2.3c.3.2.7 0 .9-.3 0-.1 0-.1.1-.2v-.5l-2.5-7.2c-.2-.2 0-.5.2-.6l4.2-6.2c.3-.2.3-.7 0-.9-.1-.1-.1-.1-.2-.1-.2-.2-.3-.2-.6-.2l-7.2.2c-.2 0-.5-.1-.6-.3l-4.2-6.1c-.2-.3-.7-.4-1.1-.2-.2.2-.3.3-.3.5l-1.9 7.2c0 .3-.2.5-.5.5l-6.7 2.3c-.4.1-.6.5-.5.9v.1c0 .2.1.3.3.3l6.1 4.4c-.3.1-.1.3-.1.6z" fill="#00aee0"/><path d="M593.6 167.6c-4.3-1.9-9.2-1.7-13.4.5-8.9 4.7-13.5 14.8-11.2 24.6 1.1 4.6 4.3 8.4 8.6 10.4 1.9.8 4 1.2 6.1 1.2 2.5 0 5-.6 7.3-1.7 8.9-4.7 13.4-14.9 11.1-24.6-1.1-4.6-4.2-8.4-8.5-10.4zm0 21.4c-1.3 2.9-3.5 5.2-6.2 6.7-3.6 2-8.2.7-10.3-2.9-.4-.7-.6-1.4-.8-2.1-1.4-6.2 1.5-12.6 7.2-15.6 1.2-.6 2.5-.9 3.9-.9 1 0 2 .2 3 .6 2.2 1.1 3.7 3.1 4.2 5.5.8 2.8.4 6-1 8.7zm15.3-49c-4.4-2-9.7.8-12.2 5.9-2.3 5.3-.8 11.1 3.4 13.1 4.4 2 9.8-.8 12.2-5.9 2.5-5.3 1-11.2-3.4-13.1z" fill="#04294f"/><ellipse cx="562.4" cy="16" fill="#f04e23" rx="10.3" ry="8.9" transform="matrix(.5 -.866 .866 .5 267.3479 495.002)"/><g fill="#04294f"><path d="M579.9 35c6.1 3.7 12.2 7.6 17.8 11.8l4.2 3.3c1.4 1.1 2.7 2.3 4.1 3.4 2.7 2.3 5.3 4.7 7.6 7.2 5.1 5 9.8 10.3 14 16.1 4.4 5.8 8.3 11.7 12 17.8.6.9 1.9 1.2 2.8.6.8-.5 1.1-1.5.8-2.3-2.5-7.1-5.9-13.8-10-20.1-1.1-1.6-2-3.1-3.1-4.7s-2.2-3-3.4-4.5-2.4-2.9-3.7-4.2c-1.4-1.2-2.5-2.8-3.9-4.1-5.3-5.3-11.2-10.1-17.4-14.2-6.3-4-13-7.3-20.1-9.8-1-.4-2.1.1-2.5 1.1-.4.9 0 2 .8 2.6zm86.5 154.3v.3c-1.4 4.4-3.1 8.7-4.8 13.1-.9 2.2-1.7 4.4-2.8 6.4-.5 1.1-.9 2.2-1.4 3.1-.4 1.1-.9 2.1-1.6 3.1-4.1 8.3-9.2 16.2-15 23.5-.5.5-.5 1.4 0 1.9s1.4.5 1.9 0c3.7-3.1 7-6.7 9.8-10.8.8-.9 1.4-2 2.2-3s1.4-2 2-3.1l1.9-3.1 1.7-3.3c1.1-2.2 2.2-4.4 3.1-6.5s1.9-4.5 2.6-6.7l1.2-3.4c.3-1.1.8-2.3 1.1-3.4.5-1.7.9-3.6 1.2-5.3 1.9.3 3.9.6 5.8 1.1.7.2 1.5-.1 1.7-.8s-.1-1.4-.8-1.7c-2.5-1-5-1.9-7.6-2.6-.8-.3-1.8.2-2.2 1.2zm-8.1-27.5c-1.1.8-2.2 1.7-3.1 2.6-.5.6-.4 1.5.2 2 .3.2.7.4 1 .3 1.3-.1 2.6-.5 3.9-.9 2.5-.9 4.8-2.1 7-3.6 1.1-.7 2.1-1.6 3.1-2.5.5-.6.4-1.5-.2-2-.2-.2-.6-.4-.9-.3-1.3.1-2.6.5-3.9.9-2.4.9-4.9 2-7.1 3.5zm-6.7-3.2c1.3-.3 2.6-.7 3.9-1.2 2.3-1.1 4.5-2.6 6.4-4.4 1-.9 1.9-1.9 2.7-3 .5-.6.3-1.5-.3-2-.3-.2-.7-.3-1.1-.2-1.3.3-2.5.7-3.7 1.2-2.4 1.2-4.6 2.6-6.5 4.4-1 .9-1.8 1.9-2.6 3-.2.3-.3.7-.2 1.1 0 .7.6 1.2 1.3 1.1zM77 316.7c-2.2.6-4.4 1.3-6.5 2.2l-.3.9c-.8 2.3-1.2 4.7-1.9 7l-1.7 7c-.6 2.3-1.2 4.5-1.9 6.9v.2c-.3 1.1.3 2.2 1.4 2.5.7.2 1.4 0 1.9-.5 2.2-1.8 3.9-4.1 5.1-6.7 1.2-2.4 2.2-4.9 2.8-7.5.7-2.6 1.1-5.2 1.2-7.8.1-1.4 0-2.8-.1-4.2zm238.5 55.8c-.2-.6-.3-1.1-.5-1.7 0 .6.2 1.2.5 1.7zm-8.8-4.2c1.6 1.1 8.3 2.5 8.3 2.5l-.5-1.9-1.7-7-1.7-7c-.6-2.4-1.2-4.8-2-7.2v-.2c-.2-.6-.7-1.1-1.4-1.2-1.1-.3-2.2.3-2.5 1.4-.8 2.6-1.1 5.3-.9 7.9.1 2.7.4 5.3 1.1 7.9.3 1.7.7 3.3 1.3 4.8zm-68.5 106.2c2.6 3.5 7.5 4.3 11.1 1.9 7.2-4.8 21.5-13.7 37.2-17.9 2.5-.6 4.5-2.4 5.3-4.8.9-2.4.6-5.1-.8-7.3-4.7-7.3-10.3-14-16.5-19.9-2.6-2.4-5.6-4.5-8.7-6.2-1.7-.8-3.6-1-5.5-.6-15.7 4.1-30.4 11.2-43.3 20.9-3.6 2.6-4.4 7.6-1.7 11.2.4.6 1 1.1 1.6 1.6l1.4 1.1c7.4 5.5 14.1 12.3 19.9 20zm-19.4-27.9c0-.9.5-1.8 1.2-2.3 12.4-9.4 26.4-16.2 41.5-20.1.6-.2 1.3-.1 1.9.2 8.9 4.5 18.4 17.3 23.4 24.6.5.8.6 1.8.3 2.6s-1 1.5-1.9 1.7c-16.5 4.5-31.5 13.6-38.8 18.7-1.3.8-3 .5-3.9-.8-6.4-8.5-14-16-22.4-22.4-.8-.5-1.3-1.3-1.3-2.2z"/><path d="m230.2 446.3.2.2c1 1.5 2.2 2.9 3.4 4.2 1.2 1.2 2.3 2.5 3.6 3.9 1.2 1.2 2.3 2.5 3.6 3.6 1.2 1.3 2.5 2.6 3.9 3.7l.2.2c.9.7 2.1.6 2.9-.2l.1-.1c.3-.4.5-.9.5-1.4-.2-2.1-.7-4.2-1.7-6.1-1-1.8-2.2-3.5-3.6-5s-2.9-2.8-4.7-3.9-3.7-1.9-5.8-2.3c-1.3-.2-2.5.7-2.7 2-.1.3-.1.7.1 1.2zm13.1-7.5c1 1.5 2.2 2.9 3.4 4.2 1.2 1.2 2.3 2.5 3.6 3.9 1.2 1.2 2.3 2.5 3.6 3.6 1.2 1.3 2.5 2.6 3.9 3.7l.2.2c.4.3.9.5 1.4.5 1.1-.1 1.9-1.1 1.9-2.2-.2-2.1-.7-4.2-1.7-6.1-1-1.8-2.2-3.5-3.6-5s-3-2.8-4.7-3.9c-1.8-1.1-3.7-1.9-5.8-2.3-1.1-.2-2.2.5-2.5 1.6-.1.5 0 1.1.3 1.6zm12.6-5.5c1 1.5 2.1 2.9 3.3 4.2 1.2 1.2 2.3 2.5 3.6 3.9 1.1 1.3 2.3 2.5 3.6 3.6 1.2 1.3 2.5 2.6 3.9 3.7l.2.2c.9.7 2.1.6 2.9-.2l.1-.1c.3-.4.5-.9.5-1.4-.2-2.1-.7-4.2-1.7-6.1-1-1.8-2.2-3.5-3.6-5s-2.9-2.8-4.7-3.9-3.7-1.9-5.8-2.3c-.5-.1-1.1 0-1.6.3-.9.6-1.2 1.9-.6 2.8zM134.5 611.6c.2-1.2-.7-2.3-1.9-2.5-1.9-.2-3.7-.2-5.6 0-1.8.2-3.6.6-5.3 1.1-1.8.5-3.5 1.1-5.1 1.9-1.7.8-3.4 1.8-4.8 3-.4.3-.7.8-.8 1.4-.2 1.1.6 2.1 1.7 2.3h.2c1.9.2 3.7.2 5.6 0 1.8-.2 3.6-.6 5.3-1.1 1.8-.5 3.5-1.1 5.1-1.9 1.7-.8 3.4-1.8 4.8-3 .4-.3.7-.7.8-1.2zm-51.4-90.1c1.9.2 3.7.2 5.6 0 1.8-.2 3.6-.6 5.3-1.1 1.8-.5 3.5-1.1 5.1-1.9 1.7-.8 3.4-1.8 4.8-3 .9-.7 1.1-2 .3-3-.4-.4-.9-.7-1.4-.8-1.9-.3-3.8-.3-5.6 0-3.6.4-7.1 1.4-10.4 3-1.7.8-3.4 1.8-4.8 3-.9.7-1.1 2-.3 3 .3.5.8.8 1.4.8zm15.6 15.1c2.8-.8 5.6-1.7 8.3-2.8 2.8-1.1 5.4-2.4 7.9-3.9.9-.6 1.2-1.9.6-2.8-.4-.6-1-1-1.7-.9-2.9.1-5.8.4-8.7.9-2.8.5-5.6 1.2-8.4 2s-5.6 1.7-8.3 2.8c-2.8 1.1-5.4 2.4-7.9 3.9-.9.6-1.2 1.9-.6 2.8.4.6 1 1 1.7.9 2.9 0 5.9-.3 8.7-.9 2.8-.5 5.6-1.1 8.4-2zm4 16.6c3.1-.8 6.1-1.9 9.2-3 3-1.2 6-2.5 8.9-4.1.9-.6 1.3-1.8.8-2.8-.4-.7-1.1-1.1-1.9-.9-3.2.2-6.5.6-9.7 1.2-3.1.6-6.2 1.4-9.4 2.2-3.1.9-6.1 1.9-9.2 3-3 1.2-6 2.5-8.9 4.1-.9.6-1.3 1.8-.8 2.8.4.7 1.1 1.1 1.9.9 3.2-.2 6.5-.6 9.7-1.2s6.4-1.3 9.4-2.2zm4.7 16.3c3.1-.9 6.1-1.9 9-3 3-1.1 5.9-2.5 8.7-4.1.9-.6 1.2-1.8.8-2.8-.4-.7-1.1-1.1-1.9-.9-3.2.2-6.5.6-9.7 1.2-3.1.6-6.2 1.4-9.4 2.2-3.1.9-6.1 1.9-9.2 3-3 1.2-6 2.5-8.9 4.1-.9.6-1.3 1.8-.8 2.8.4.7 1.1 1.1 1.9.9 3.2-.2 6.5-.6 9.7-1.2 3.4-.5 6.6-1.3 9.8-2.2zm5.8 15.9c2.8-.8 5.8-1.7 8.6-2.8 2.9-1.1 5.6-2.4 8.3-3.9.9-.6 1.2-1.9.6-2.8-.4-.6-1-1-1.7-.9-3 .1-6.1.5-9 1.1-3 .6-5.9 1.2-8.7 2s-5.8 1.7-8.6 2.8c-2.9 1.1-5.6 2.4-8.3 3.9-.9.6-1.2 1.8-.8 2.8.4.7 1.1 1.1 1.9.9 3-.1 6.1-.5 9-1.1 2.9-.4 5.8-1.1 8.7-2zm5.3 16.2c2.4-.6 4.7-1.4 7-2.3s4.6-2.1 6.7-3.4c.9-.6 1.2-1.9.6-2.8-.3-.6-.9-.9-1.6-.9-2.5 0-5 .2-7.5.6-4.9.8-9.6 2.2-14.2 4.1-2.3.9-4.6 2.1-6.7 3.4-.9.6-1.2 1.9-.6 2.8.3.6 1 1 1.7.9 2.5 0 5-.2 7.5-.6 2.4-.5 4.7-1.1 7.1-1.8zm36.3-68.4c-.2-2.8-.6-5.5-1.2-8.3l-.9-3.3c-2.3 3.1-4.1 6.4-5.6 10 0 .7 0 1.4.2 2l.5 7.6c.2 2.5.3 5 .6 7.6v.2c.1 1.1 1 1.9 2.1 1.9h.1c.7 0 1.4-.4 1.7-1.1 1.3-2.6 2.1-5.4 2.5-8.3.1-2.7.2-5.5 0-8.3zm219.9-312.6c-.8-.6-2-.4-2.5.4 0 .1-.1.1-.1.2-3.4 5.5-6.9 10.9-10.1 16.7-1.7 2.8-3.3 5.6-4.8 8.6l-.3.6-.2.3c7-.6 9.5-1.7 9.5-1.7.9-1.3 1.8-2.6 2.5-4.1 1.7-3 3.3-6.1 4.7-9.2 1.4-3.2 2.3-6.6 2.6-10.1-.3-.7-.7-1.3-1.3-1.7zM39.5 391.5c1.1-.5 1.6-1.7 1.1-2.8-.2-.5-.6-.9-1.1-1.1-1.7-.8-3.6-1.3-5.5-1.6-1.8-.3-3.6-.5-5.5-.5-1.8 0-3.7.2-5.5.5-1.9.3-3.7.8-5.5 1.4-.5.2-.9.6-1.1 1.1-.5 1.1 0 2.3 1.1 2.8 1.7.8 3.6 1.3 5.5 1.6 3.6.6 7.2.6 10.8 0 2-.1 3.9-.5 5.7-1.4zM15.9 289.6c1.7.8 3.6 1.3 5.5 1.6 1.8.3 3.6.5 5.5.5 1.8 0 3.7-.2 5.5-.5 1.9-.3 3.7-.8 5.5-1.6 1.1-.5 1.6-1.7 1.1-2.8-.2-.5-.6-.9-1.1-1.1-1.7-.8-3.6-1.3-5.5-1.6-3.6-.5-7.2-.5-10.8 0-1.9.3-3.7.8-5.5 1.4-1.1.5-1.6 1.7-1.1 2.8.1.9.5 1.2.9 1.3zm-6.4 17c2.8.8 5.7 1.2 8.6 1.4 5.7.6 11.4.6 17.1 0 2.9-.3 5.8-.8 8.6-1.6.7-.2 1.2-.7 1.4-1.4.3-1.1-.3-2.2-1.4-2.5-2.8-.7-5.7-1.3-8.6-1.6-5.7-.6-11.4-.6-17.1 0-2.9.3-5.8.8-8.6 1.6-1.1.3-1.7 1.4-1.4 2.5.1.8.7 1.5 1.4 1.6zm-2.6 17c3.2.8 6.4 1.3 9.7 1.6s6.4.5 9.7.5 6.4-.2 9.7-.5 6.5-.8 9.7-1.6c1.1-.3 1.7-1.4 1.4-2.5-.2-.7-.7-1.2-1.4-1.4-3.2-.8-6.4-1.3-9.7-1.6s-6.4-.5-9.7-.5-6.4.2-9.7.5-6.4.8-9.7 1.4c-1.1.3-1.7 1.4-1.4 2.5.1.8.7 1.4 1.4 1.6zm19.2 18.9c3.3 0 6.4-.2 9.7-.5s6.5-.8 9.7-1.6c1.1-.3 1.7-1.4 1.4-2.5-.2-.7-.7-1.2-1.4-1.4-3.2-.8-6.4-1.3-9.7-1.6s-6.4-.5-9.7-.5c-3.1 0-6.4.2-9.7.5s-6.5.8-9.7 1.6c-.7.2-1.2.7-1.4 1.4-.2 1.1.4 2.1 1.4 2.5 3.2.8 6.4 1.3 9.7 1.4 3.2.5 6.4.7 9.7.7zm1.4 16.9c3 0 6-.2 9-.5s6.1-.8 9-1.6c1.1-.3 1.7-1.4 1.4-2.5-.2-.7-.7-1.2-1.4-1.4-3-.8-6-1.3-9-1.6s-6-.5-9-.5-6 .2-9 .5-6.1.8-9 1.4c-.7.2-1.2.7-1.4 1.4-.3 1.1.3 2.2 1.4 2.5 3 .8 6 1.3 9 1.6 2.9.6 5.9.8 9 .7zm.6 17c2.4 0 4.9-.2 7.3-.5 2.5-.3 4.9-.8 7.3-1.6.6-.1 1.1-.6 1.2-1.2.4-1-.1-2.1-1.1-2.5h-.1c-2.4-.8-4.8-1.3-7.3-1.6-4.9-.6-9.8-.6-14.6 0-2.5.3-4.9.8-7.3 1.6-1 .4-1.6 1.6-1.2 2.6.2.6.6.9 1.2 1.2 2.4.8 4.8 1.3 7.3 1.4 2.4.5 4.8.6 7.3.6z"/></g></svg></g></svg>